<?xml version="1.0" encoding="utf-8"?>
<!-- Generator: Adobe Illustrator 16.0.0, SVG Export Plug-In . SVG Version: 6.00 Build 0)  -->
<!DOCTYPE svg PUBLIC "-//W3C//DTD SVG 1.1//EN" "http://www.w3.org/Graphics/SVG/1.1/DTD/svg11.dtd">
<svg version="1.1" id="Logan_Logo__x28_Vector_x29__forvsd_xA0_Image_1_"
	 xmlns="http://www.w3.org/2000/svg" xmlns:xlink="http://www.w3.org/1999/xlink" x="0px" y="0px" width="203.52px"
	 height="153.12px" viewBox="0 0 203.52 153.12" enable-background="new 0 0 203.52 153.12" xml:space="preserve">
<g>
	<path fill-rule="evenodd" clip-rule="evenodd" fill="none" d="M102,153.599c-33.56,0-67.12-0.004-100.68,0.023
		c-0.9,0-1.103-0.203-1.102-1.103c0.025-50.4,0.025-100.8,0-151.2c0-0.899,0.203-1.103,1.102-1.102c67.2,0.024,134.4,0.024,201.6,0
		c0.899,0,1.103,0.203,1.102,1.102c-0.024,50.4-0.024,100.8,0,151.2c0.001,0.899-0.202,1.103-1.102,1.103
		C169.279,153.595,135.64,153.599,102,153.599z M11.747,79.677c-0.944,3.138-2.249,6.135-3.723,9.049
		c-3.046,6.021-5.196,12.336-6.493,18.949c-0.679,3.46-1.224,6.923-0.45,10.455c1.02,4.657,3.998,7.976,7.363,11.079
		c3.32,3.062,7.309,4.937,11.344,6.799c8.361,3.86,16.659,7.857,25.241,11.221c7.884,3.09,15.988,5.186,24.461,5.858
		c6.168,0.49,12.196-0.222,18.199-1.521c3.927-0.85,7.736-2.079,11.862-3.381c-4.253-2.005-7.977-4.53-12.406-5.332
		c-7.304-1.323-14.571-2.801-21.771-4.605c-10.09-2.53-19.896-5.831-29.042-10.868c-4.739-2.61-9.188-5.651-13.111-9.405
		c-2.296-2.197-3.986-4.799-3.917-8.066c0.07-3.307,0.606-6.591,1.315-9.832c1.087,0.289,1.622,1.256,2.325,1.979
		c5.371,5.513,11.693,9.435,19.121,11.503c5.454,1.519,11.018,2.142,16.641,1.349c6.999-0.986,13.495-3.373,19.231-7.603
		c2.108-1.554,4.313-3.009,5.862-5.197c0.609,0.125,1.047,0.56,1.554,0.867c3.567,2.168,7.907,1.383,10.507-1.859
		c1.749-2.182,2.052-4.678,1.765-7.332c0.193-1.061,0.393-2.119,0.577-3.181c2.542-14.713,5.197-29.41,6.75-44.274
		c0.134-1.278,0.139-2.602,0.821-4.089c0.111,0.285,0.137,0.415,0.205,0.514c4.419,6.363,8.993,12.622,12.848,19.362
		c1.831,3.203,3.955,6.201,6.649,8.751c2.486,2.352,5.317,3.817,8.875,3.283c2.052-0.308,3.883-1.191,5.625-2.262
		c5.465-3.358,10.024-7.789,14.478-12.333c2.779-2.837,5.215-5.946,7.036-9.502c0.171-0.333,0.248-0.934,0.725-0.814
		c0.589,0.148,0.273,0.757,0.244,1.133c-0.377,4.781-0.621,9.571-1.113,14.345c-0.959,9.301-2.397,18.533-3.792,27.773
		c-0.984,6.517-1.931,13.04-2.476,19.61c-0.101,1.207-0.521,1.731-1.745,1.948c-7.456,1.318-13.47,5.02-17.944,11.15
		c-2.355,3.228-3.724,6.794-3.372,10.853c0.315,3.639,1.99,6.461,5.341,8.096c1.993,0.972,4.143,1.479,6.361,1.521
		c7.618,0.141,14.118-2.525,19.562-7.846c3.231-3.158,5.635-6.769,6.09-11.37c0.426-4.294,0.712-8.604,1.019-12.909
		c0.417-5.86,0.785-11.727,1.526-17.557c1.172-9.23,2.701-18.412,3.587-27.683c0.947-9.909,1.771-19.825,2.343-29.762
		c0.093-1.62,0.24-1.738,1.781-1.242c10.369,3.334,17.15,10.423,21.268,20.308c1.055,2.533,1.818,5.161,2.528,7.914
		c0.101-0.195,0.168-0.264,0.168-0.333c-0.023-6.431,0.559-12.878-0.299-19.289c-1.695-12.676-7.974-22.333-19.239-28.537
		c-4.757-2.62-9.838-4.385-15.339-4.616c-3.285-0.137-6.224,1.248-9.25,2.227c-0.475,0.153-0.67,0.535-0.623,1.039
		c0.045,0.478,0.074,0.957,0.11,1.436c0.53,7.03-0.731,13.701-4.277,19.825c-4.043,6.982-10.157,11.845-16.967,15.883
		c-2.455,1.456-4.305,0.911-6.074-1.337c-0.296-0.376-0.572-0.77-0.85-1.16c-5.555-7.817-10.986-15.714-17.316-22.96
		c-4.899-5.609-8.64-12.076-12.694-18.301c-1.333-2.047-2.748-4.029-4.536-5.715c-2.208-2.081-4.759-2.789-7.73-2.04
		c-2.253,0.567-4.224,1.65-6.036,3.063c-1.754,1.368-1.841,3.147-0.202,4.652c0.766,0.703,1.546,1.383,2.216,2.187
		c4.063,4.874,7.16,10.377,10.378,15.804c0.306,0.517,0.285,1.061,0.243,1.625c-0.261,3.509-0.739,6.992-1.269,10.466
		c-0.691,4.538-1.443,9.067-2.169,13.6c-0.671-0.005-0.808-0.62-1.06-1.022c-1.141-1.823-2.292-3.63-3.634-5.32
		c-3.84-4.834-8.408-8.781-13.862-11.705c-5.17-2.772-10.735-4.224-16.52-4.698c-5.146-0.421-10.24,0.229-15.216,1.699
		c-3.031,0.896-5.859,2.273-8.739,3.53c-0.205-1.502-0.369-3.011-0.621-4.505c-0.67-3.974-1.43-7.934-2.058-11.915
		c-0.616-3.907-1.325-7.792-2.53-11.562c-1.375-4.297-4.742-6.532-9.113-6.139c-3.103,0.279-5.772,1.753-8.47,3.139
		c-0.266,0.137-0.495,0.336-0.43,0.65c0.238,1.155,0.199,2.393,1.181,3.309c1.128,1.052,1.94,2.347,2.405,3.814
		c2.946,9.303,6.417,18.478,6.877,28.387c0.09,1.948,0.532,3.878,0.336,5.844c-0.129,0.088-0.294,0.15-0.382,0.269
		c-2.326,3.145-4.361,6.459-5.813,10.107c-2.567,6.45-3.571,13.141-2.925,20.049C11.173,77.858,10.97,78.917,11.747,79.677z"/>
	<path fill-rule="evenodd" clip-rule="evenodd" fill="#414F44" d="M91.664,53.038c0.726-4.533,1.478-9.062,2.169-13.6
		c0.529-3.475,1.008-6.958,1.269-10.466c0.042-0.564,0.063-1.108-0.243-1.625c-3.218-5.427-6.316-10.93-10.378-15.804
		c-0.67-0.804-1.45-1.483-2.216-2.187c-1.64-1.505-1.553-3.284,0.202-4.652c1.813-1.413,3.783-2.496,6.036-3.063
		c2.972-0.749,5.523-0.041,7.73,2.04c1.789,1.686,3.203,3.668,4.536,5.715c4.054,6.225,7.794,12.692,12.694,18.301
		c6.33,7.246,11.762,15.143,17.316,22.96c0.277,0.391,0.554,0.784,0.85,1.16c1.77,2.248,3.619,2.793,6.074,1.337
		c6.81-4.038,12.924-8.9,16.967-15.883c3.546-6.124,4.808-12.795,4.277-19.825c-0.036-0.479-0.065-0.958-0.11-1.436
		c-0.047-0.504,0.148-0.885,0.623-1.039c3.026-0.979,5.965-2.364,9.25-2.227c5.501,0.23,10.582,1.996,15.339,4.616
		c11.266,6.204,17.544,15.861,19.239,28.537c0.857,6.411,0.275,12.858,0.299,19.289c0,0.069-0.067,0.138-0.168,0.333
		c-0.71-2.753-1.474-5.381-2.528-7.914c-4.117-9.885-10.898-16.974-21.268-20.308c-1.541-0.496-1.688-0.378-1.781,1.242
		c-0.572,9.937-1.396,19.853-2.343,29.762c-0.886,9.271-2.415,18.452-3.587,27.683c-0.741,5.83-1.109,11.696-1.526,17.557
		c-0.307,4.306-0.593,8.615-1.019,12.909c-0.455,4.602-2.858,8.212-6.09,11.37c-5.443,5.32-11.943,7.986-19.562,7.846
		c-2.219-0.041-4.368-0.549-6.361-1.521c-3.351-1.635-5.025-4.457-5.341-8.096c-0.352-4.059,1.017-7.625,3.372-10.853
		c4.475-6.131,10.488-9.832,17.944-11.15c1.225-0.217,1.645-0.741,1.745-1.948c0.545-6.57,1.491-13.094,2.476-19.61
		c1.395-9.24,2.833-18.472,3.792-27.773c0.492-4.774,0.736-9.564,1.113-14.345c0.029-0.375,0.345-0.984-0.244-1.133
		c-0.477-0.12-0.554,0.481-0.725,0.814c-1.821,3.557-4.257,6.666-7.036,9.502c-4.453,4.544-9.013,8.975-14.478,12.333
		c-1.742,1.071-3.573,1.954-5.625,2.262c-3.558,0.534-6.389-0.931-8.875-3.283c-2.694-2.55-4.818-5.548-6.649-8.751
		c-3.854-6.74-8.429-12.999-12.848-19.362c-0.068-0.1-0.094-0.229-0.205-0.514c-0.683,1.488-0.688,2.811-0.821,4.089
		c-1.553,14.865-4.207,29.561-6.75,44.274c-0.184,1.062-0.384,2.12-0.577,3.181c-0.807-1.138-1.259-2.488-2.178-3.562
		c-0.523-0.611-0.896-0.489-1.31,0.1c-0.609,0.867-0.1,1.518,0.406,2.143c0.941,1.165,1.541,2.512,1.365,3.969
		c-0.436,3.606-3.208,6.048-6.667,5.816c-2.517-0.169-4.311-1.393-5.249-3.703c-0.938-2.311-0.736-4.578,0.976-6.481
		c1.75-1.946,4.005-2.58,6.521-1.846c0.953,0.278,1.655,0.391,2.271-0.546c0.606-0.922,0.273-1.609-0.322-2.368
		c-1.923-2.448-3.812-4.924-5.693-7.403c-0.361-0.476-0.625-1.021-0.613-1.652c0.155-0.574,0.331-1.143,0.461-1.722
		c1.178-5.241,1.928-10.561,2.88-15.844C90.927,58.144,91.738,55.66,91.664,53.038z"/>
	<path fill-rule="evenodd" clip-rule="evenodd" fill="#E6E5E5" d="M91.664,53.038c0.074,2.622-0.737,5.106-1.194,7.645
		c-0.952,5.283-1.702,10.603-2.88,15.844c-0.13,0.58-0.307,1.148-0.461,1.722c-0.736-0.058-1.08-0.658-1.454-1.144
		c-2.975-3.853-5.905-7.739-8.88-11.592c-3.78-4.895-7.587-9.769-11.396-14.642c-0.263-0.336-0.461-0.831-1.032-0.811
		c-0.134,0.433-0.015,0.764,0.108,1.107c4.595,12.755,9.138,25.529,13.802,38.26c1.585,4.327,2.798,8.839,5.521,12.68
		c-1.549,2.188-3.754,3.644-5.862,5.197c-5.736,4.229-12.232,6.616-19.231,7.603c-5.623,0.793-11.187,0.17-16.641-1.349
		c-7.428-2.068-13.75-5.99-19.121-11.503c-0.704-0.723-1.238-1.689-2.325-1.979c0.048-0.394,0.078-0.791,0.147-1.182
		c0.714-4.067,2.146-7.899,3.682-11.718c2.958-7.35,4.553-15.084,6.286-22.783c1.567-6.958,2.685-13.948,2.359-21.107
		c-0.118-2.59-0.305-5.178-0.46-7.766c2.88-1.257,5.708-2.635,8.739-3.53c4.976-1.47,10.069-2.12,15.216-1.699
		c5.784,0.474,11.35,1.926,16.52,4.698c5.454,2.924,10.022,6.871,13.862,11.705c1.342,1.689,2.493,3.497,3.634,5.32
		C90.856,52.418,90.993,53.033,91.664,53.038z M65.573,72.808c0.03-6.464-5.158-11.673-11.495-11.854
		c-6.844-0.196-12.143,5.597-12.141,11.591c0.002,6.726,5.167,12.035,11.814,12.038C60.308,84.586,65.543,79.372,65.573,72.808z"/>
	<path fill-rule="evenodd" clip-rule="evenodd" fill="#425045" d="M32.634,35.521c0.155,2.588,0.342,5.176,0.46,7.766
		c0.325,7.159-0.792,14.149-2.359,21.107c-1.733,7.699-3.328,15.434-6.286,22.783c-1.536,3.818-2.968,7.65-3.682,11.718
		c-0.069,0.391-0.099,0.788-0.147,1.182c-0.709,3.241-1.246,6.525-1.315,9.832c-0.069,3.268,1.621,5.869,3.917,8.066
		c3.923,3.754,8.373,6.795,13.111,9.405c9.146,5.037,18.952,8.338,29.042,10.868c7.2,1.805,14.467,3.282,21.771,4.605
		c4.429,0.802,8.153,3.327,12.406,5.332c-4.125,1.302-7.935,2.531-11.862,3.381c-6.003,1.299-12.031,2.011-18.199,1.521
		c-8.474-0.673-16.578-2.769-24.461-5.858c-8.582-3.363-16.88-7.36-25.241-11.221c-4.035-1.862-8.024-3.737-11.344-6.799
		c-3.366-3.104-6.344-6.422-7.363-11.079c-0.774-3.532-0.229-6.995,0.45-10.455c1.297-6.613,3.447-12.929,6.493-18.949
		c1.474-2.914,2.778-5.911,3.723-9.049c0.081-0.135,0.188-0.259,0.239-0.403c2.583-7.403,5.021-14.853,6.924-22.462
		c0.84-3.361,1.472-6.769,1.3-10.267c0.196-1.966-0.246-3.896-0.336-5.844c-0.46-9.909-3.931-19.084-6.877-28.387
		c-0.465-1.468-1.277-2.762-2.405-3.814C9.61,7.583,9.649,6.345,9.412,5.19c-0.064-0.314,0.164-0.513,0.43-0.65
		c2.697-1.386,5.367-2.86,8.47-3.139c4.371-0.394,7.739,1.842,9.113,6.139c1.206,3.77,1.914,7.655,2.53,11.562
		c0.628,3.981,1.387,7.94,2.058,11.915C32.265,32.51,32.429,34.019,32.634,35.521z"/>
	<path fill-rule="evenodd" clip-rule="evenodd" fill="#999999" d="M83.799,102.107c-2.723-3.841-3.936-8.353-5.521-12.68
		c-4.664-12.73-9.207-25.504-13.802-38.26c-0.123-0.343-0.243-0.674-0.108-1.107c0.57-0.02,0.769,0.475,1.032,0.811
		c3.808,4.873,7.615,9.747,11.396,14.642c2.976,3.853,5.906,7.739,8.88,11.592c0.374,0.485,0.718,1.086,1.454,1.144
		c-0.012,0.631,0.252,1.177,0.613,1.652c1.882,2.479,3.77,4.955,5.693,7.403c0.596,0.759,0.928,1.446,0.322,2.368
		c-0.616,0.937-1.317,0.824-2.271,0.546c-2.516-0.734-4.771-0.101-6.521,1.846c-1.712,1.903-1.914,4.171-0.976,6.481
		c0.938,2.311,2.732,3.534,5.249,3.703c3.458,0.231,6.231-2.21,6.667-5.816c0.176-1.457-0.424-2.804-1.365-3.969
		c-0.505-0.625-1.015-1.275-0.406-2.143c0.414-0.589,0.787-0.711,1.31-0.1c0.919,1.073,1.372,2.424,2.178,3.562
		c0.287,2.654-0.016,5.15-1.765,7.332c-2.6,3.242-6.94,4.027-10.507,1.859C84.846,102.667,84.408,102.232,83.799,102.107z"/>
	<path fill-rule="evenodd" clip-rule="evenodd" fill="#E4E4E3" d="M20.211,46.544c0.172,3.499-0.46,6.906-1.3,10.267
		c-1.903,7.61-4.341,15.06-6.924,22.462c-0.051,0.145-0.158,0.269-0.239,0.403c-0.777-0.761-0.574-1.819-0.657-2.707
		c-0.646-6.908,0.358-13.6,2.925-20.049c1.452-3.648,3.487-6.962,5.813-10.107C19.917,46.694,20.082,46.632,20.211,46.544z"/>
	<path fill-rule="evenodd" clip-rule="evenodd" fill="#435045" d="M65.573,72.808c-0.03,6.564-5.265,11.779-11.821,11.775
		c-6.647-0.003-11.813-5.313-11.814-12.038c-0.002-5.994,5.297-11.787,12.141-11.591C60.415,61.135,65.603,66.343,65.573,72.808z
		 M53.66,80.399c4.159,0.001,7.875-3.583,7.717-7.668c-0.161-4.167-3.091-7.533-7.55-7.548c-4.467-0.016-7.611,3.041-7.664,7.75
		C46.113,77.475,50.271,80.526,53.66,80.399z"/>
	<path fill-rule="evenodd" clip-rule="evenodd" fill="#979797" d="M53.66,80.399c-3.389,0.127-7.546-2.924-7.496-7.467
		c0.052-4.709,3.197-7.766,7.664-7.75c4.459,0.015,7.389,3.381,7.55,7.548C61.535,76.816,57.819,80.4,53.66,80.399z M48.172,72.724
		c-0.041,3.18,2.396,5.725,5.496,5.74c3.178,0.015,5.64-2.4,5.672-5.566c0.033-3.246-2.231-5.694-5.309-5.738
		C50.578,67.11,48.214,69.354,48.172,72.724z"/>
	<path fill-rule="evenodd" clip-rule="evenodd" fill="none" d="M48.172,72.724c0.042-3.37,2.406-5.614,5.859-5.564
		c3.077,0.044,5.342,2.492,5.309,5.738c-0.032,3.166-2.494,5.581-5.672,5.566C50.567,78.449,48.131,75.904,48.172,72.724z"/>
</g>
</svg>
