<?xml version="1.0" standalone="no"?>
<!DOCTYPE svg PUBLIC "-//W3C//DTD SVG 20010904//EN"
 "http://www.w3.org/TR/2001/REC-SVG-20010904/DTD/svg10.dtd">
<svg version="1.0" xmlns="http://www.w3.org/2000/svg"
 width="816.000000pt" height="816.000000pt" viewBox="0 0 816.000000 816.000000"
 preserveAspectRatio="xMidYMid meet">
<metadata>
Created by potrace 1.14, written by Peter Selinger 2001-2017
</metadata>
<g transform="translate(0.000000,816.000000) scale(0.100000,-0.100000)"
fill="#000000" stroke="none">
<path d="M700 7089 c-91 -19 -157 -44 -267 -102 -49 -25 -59 -36 -53 -62 1 -5
4 -20 6 -32 8 -40 22 -68 53 -100 17 -18 31 -37 31 -42 0 -6 3 -11 8 -11 11 0
40 -72 78 -195 19 -60 38 -119 44 -130 13 -29 115 -380 120 -417 1 -4 6 -22
11 -40 6 -18 12 -42 14 -53 1 -11 10 -58 18 -105 18 -98 28 -173 32 -250 2
-30 7 -101 11 -158 6 -95 5 -105 -14 -125 -56 -61 -205 -322 -227 -397 -4 -14
-11 -29 -15 -35 -8 -11 -58 -169 -66 -207 -39 -202 -48 -281 -46 -423 2 -142
11 -228 23 -236 7 -4 8 -16 3 -30 -4 -13 -9 -26 -9 -29 -20 -75 -37 -116 -164
-383 -56 -119 -63 -135 -125 -312 -36 -102 -85 -279 -101 -366 -4 -23 -8 -38
-21 -99 -3 -14 -8 -77 -11 -141 -4 -89 -2 -134 11 -191 15 -67 76 -215 95
-228 4 -3 18 -21 30 -40 44 -65 216 -226 301 -281 116 -75 202 -119 595 -299
33 -15 86 -39 118 -54 180 -82 253 -115 337 -151 36 -15 82 -35 103 -46 20
-10 37 -17 37 -14 0 2 28 -9 63 -24 75 -34 324 -124 404 -146 64 -18 196 -51
238 -60 233 -52 356 -64 610 -61 127 2 245 6 263 9 18 3 52 9 75 12 40 6 130
21 172 31 11 2 29 6 40 8 101 21 446 124 460 138 7 6 7 8 0 7 -5 -2 -75 30
-155 70 -147 75 -273 124 -345 135 -22 4 -53 9 -70 12 -16 3 -41 8 -55 9 -14
2 -26 4 -27 5 -4 3 -12 5 -63 14 -25 5 -52 10 -60 11 -23 5 -173 37 -190 40
-8 2 -60 13 -115 25 -55 12 -154 35 -220 51 -66 17 -127 32 -135 34 -50 10
-281 78 -365 107 -133 44 -232 81 -272 99 -24 10 -46 19 -51 19 -5 0 -32 11
-60 25 -29 14 -54 25 -58 25 -25 0 -491 253 -514 279 -3 3 -25 20 -50 36 -25
16 -47 32 -50 35 -3 3 -27 23 -55 45 -111 88 -220 197 -238 238 -6 15 -15 27
-19 27 -5 0 -8 9 -8 19 0 11 -4 22 -9 25 -15 10 -30 119 -26 186 5 68 12 126
20 172 3 16 7 40 10 55 2 16 7 47 11 71 4 26 12 42 21 42 7 0 53 -39 101 -87
48 -49 103 -100 122 -115 19 -15 53 -41 75 -58 172 -137 422 -249 665 -300 58
-12 122 -25 143 -30 40 -9 388 -6 423 3 12 3 39 8 60 11 21 4 68 14 104 22 36
9 72 17 80 19 91 21 341 133 407 181 17 13 34 24 37 24 5 0 110 73 171 120 11
8 47 43 81 78 36 36 65 58 69 52 3 -6 11 -8 16 -5 5 4 9 1 9 -4 0 -12 67 -45
122 -59 94 -25 220 10 288 81 84 86 102 132 106 277 1 47 5 97 8 113 3 15 8
39 11 55 2 15 7 40 11 55 3 16 7 38 9 50 3 19 7 49 20 122 1 11 6 38 10 60 3
22 10 60 15 85 5 25 12 61 15 80 2 19 7 46 9 60 5 27 15 87 22 135 3 17 9 53
14 80 5 28 12 68 15 90 2 22 7 51 10 65 3 14 8 43 11 65 2 22 7 54 11 70 3 17
6 39 7 50 3 27 17 125 22 150 2 11 7 40 10 65 3 25 7 56 10 70 2 14 7 50 10
80 3 30 7 66 10 80 2 14 7 48 10 75 2 28 7 64 9 82 3 18 7 63 10 100 7 83 24
161 36 169 5 3 9 0 9 -6 0 -6 6 -17 13 -25 6 -7 39 -52 72 -101 33 -48 78
-112 99 -143 133 -191 386 -589 386 -608 0 -4 13 -20 38 -48 6 -7 12 -18 12
-24 0 -6 4 -11 8 -11 4 0 15 -13 24 -28 24 -41 144 -160 203 -203 71 -52 135
-72 230 -72 67 0 93 5 159 31 117 48 268 152 441 305 75 67 294 284 335 332
84 99 191 257 205 303 4 13 14 22 26 22 15 0 18 -5 15 -27 -3 -16 -7 -71 -11
-123 -7 -112 -17 -240 -30 -395 -10 -116 -24 -241 -30 -276 -2 -10 -7 -49 -10
-86 -4 -37 -9 -75 -10 -84 -2 -9 -6 -40 -10 -70 -3 -30 -8 -61 -10 -69 -2 -8
-7 -38 -10 -66 -3 -28 -7 -59 -9 -70 -2 -10 -7 -44 -11 -74 -4 -30 -9 -64 -11
-75 -2 -11 -7 -40 -10 -65 -7 -58 -13 -99 -19 -130 -11 -61 -25 -157 -30 -205
-2 -16 -4 -30 -5 -30 -1 0 -3 -11 -5 -25 -3 -37 -15 -122 -20 -145 -2 -11 -7
-42 -10 -70 -4 -27 -8 -63 -11 -80 -2 -16 -6 -54 -10 -85 -3 -30 -7 -71 -10
-90 -5 -45 -15 -147 -17 -182 -4 -51 -37 -67 -207 -103 -23 -5 -87 -30 -98
-38 -6 -5 -12 -7 -12 -4 0 4 -34 -11 -75 -32 -245 -127 -446 -352 -513 -574
-14 -47 -19 -89 -17 -153 2 -89 13 -165 24 -174 3 -3 17 -27 30 -53 31 -62 88
-111 176 -152 93 -44 118 -48 270 -49 150 0 183 4 285 33 25 8 50 14 57 15 7
1 16 5 19 9 4 4 16 7 26 7 10 0 18 5 18 10 0 6 7 10 17 10 28 0 243 134 243
151 0 5 5 9 11 9 15 0 139 126 186 190 37 50 83 130 89 155 2 6 10 28 18 50
15 41 26 101 31 165 2 19 6 71 9 115 17 205 20 253 31 415 7 102 13 192 20
270 3 36 8 92 11 125 2 33 7 78 10 100 2 22 7 65 10 95 9 86 11 102 18 145 3
22 8 58 11 80 16 129 15 119 31 229 3 21 8 48 10 60 3 11 7 41 9 66 3 25 7 59
9 75 2 17 7 54 11 84 4 30 8 61 10 70 2 9 6 44 10 76 3 33 8 74 10 91 3 17 7
57 10 90 3 32 8 75 10 94 3 19 7 67 10 105 3 39 7 88 10 110 2 22 7 69 10 105
3 36 8 92 11 125 3 33 7 80 9 105 1 25 6 88 10 140 8 101 8 106 20 270 4 58 9
125 10 150 2 25 5 66 6 93 1 29 7 51 16 56 36 20 290 -92 419 -185 131 -94
262 -228 325 -331 13 -21 26 -40 30 -43 7 -5 132 -248 136 -265 2 -6 16 -48
33 -95 16 -47 38 -114 49 -150 l19 -65 0 375 c1 384 -3 438 -44 599 -9 36 -17
73 -19 82 -2 10 -9 27 -15 38 -6 12 -8 21 -6 21 14 0 -120 281 -136 288 -5 2
-8 9 -8 15 0 7 -14 28 -30 47 -16 19 -30 38 -30 42 0 4 -34 46 -75 93 -41 48
-75 84 -75 81 0 -3 -15 10 -32 27 -70 69 -200 162 -309 219 -35 19 -73 39 -84
45 -73 40 -249 101 -340 119 -22 4 -47 9 -55 11 -8 2 -64 6 -123 7 -114 3
-137 -1 -332 -66 l-70 -23 -1 -185 c-1 -102 -6 -216 -13 -255 -38 -226 -145
-461 -289 -635 -81 -98 -235 -241 -321 -299 -20 -14 -38 -27 -41 -31 -10 -12
-196 -127 -226 -139 -64 -25 -134 -10 -181 41 -11 13 -64 84 -117 158 -52 74
-101 143 -108 152 -7 10 -23 33 -36 50 -13 18 -48 67 -78 108 -30 41 -63 86
-72 98 -87 120 -217 285 -296 376 -150 173 -253 318 -544 768 -88 136 -111
166 -181 236 -59 57 -89 76 -155 96 -107 32 -277 -17 -396 -114 -47 -38 -61
-60 -67 -106 -4 -29 4 -41 73 -113 43 -45 95 -105 116 -134 22 -29 44 -59 51
-67 30 -38 133 -199 222 -348 106 -176 105 -174 90 -307 -17 -150 -22 -187
-35 -263 -5 -29 -9 -56 -8 -60 2 -6 -3 -35 -17 -112 -2 -8 -8 -51 -15 -95 -7
-44 -14 -89 -16 -100 -2 -11 -7 -40 -10 -65 -3 -25 -7 -52 -9 -60 -3 -8 -7
-35 -10 -60 -3 -25 -9 -48 -14 -53 -4 -4 -36 36 -72 90 -111 170 -283 366
-383 438 -16 11 -33 25 -40 30 -33 30 -97 75 -141 100 -27 16 -52 32 -55 35
-18 23 -307 145 -365 155 -11 2 -40 9 -65 15 -231 59 -544 61 -785 6 -101 -24
-329 -107 -418 -152 -16 -9 -31 -14 -33 -11 -6 5 -14 42 -19 87 -6 51 -14 102
-19 126 -2 12 -7 39 -10 60 -4 22 -11 65 -17 97 -5 32 -12 70 -14 85 -2 15 -7
38 -10 52 -3 14 -7 41 -10 60 -3 19 -7 46 -9 60 -7 32 -26 146 -33 188 -12 81
-73 306 -92 342 -11 22 -19 40 -16 40 6 0 -31 45 -69 83 -28 29 -94 63 -139
73 -39 9 -121 10 -157 3z m1529 -2643 c49 -11 91 -47 121 -104 31 -58 37 -132
15 -188 -19 -51 -70 -114 -91 -114 -8 0 -14 -4 -14 -8 0 -14 -80 -30 -127 -25
-177 16 -261 224 -150 372 47 64 142 89 246 67z"/>
</g>
</svg>
